<?xml version="1.0" standalone="no"?>
<!DOCTYPE svg PUBLIC "-//W3C//DTD SVG 20010904//EN"
 "http://www.w3.org/TR/2001/REC-SVG-20010904/DTD/svg10.dtd">
<svg version="1.0" xmlns="http://www.w3.org/2000/svg"
 width="71.000000pt" height="71.000000pt" viewBox="0 0 71.000000 71.000000"
 preserveAspectRatio="xMidYMid meet">
<metadata>
Created by potrace 1.11, written by Peter Selinger 2001-2013
</metadata>
<g transform="translate(0.000000,71.000000) scale(0.100000,-0.100000)"
fill="#000000" stroke="none">
<path d="M195 697 c-65 -21 -130 -79 -166 -147 -19 -36 -23 -61 -23 -125 0
-70 3 -87 29 -133 16 -29 48 -74 72 -100 24 -26 69 -80 101 -119 60 -76 75
-85 91 -54 8 15 1 30 -41 82 -28 35 -74 89 -101 119 -64 70 -101 148 -98 208
6 162 167 268 313 207 72 -29 138 -118 138 -184 0 -35 14 -54 36 -49 46 9 11
148 -55 218 -76 80 -194 110 -296 77z"/>
<path d="M226 590 c-66 -20 -123 -113 -112 -182 8 -52 17 -70 50 -104 33 -32
55 -44 97 -49 65 -9 67 45 1 58 -61 12 -96 61 -89 123 5 48 27 80 67 97 74 31
146 -15 165 -106 4 -22 11 -28 28 -25 41 6 26 89 -27 146 -41 46 -112 62 -180
42z"/>
<path d="M450 335 c-15 -11 -56 -48 -90 -81 -64 -62 -74 -94 -31 -94 17 0 19
-7 18 -50 0 -36 5 -58 20 -78 20 -26 23 -27 132 -30 107 -3 112 -2 136 22 21
21 25 35 25 80 0 49 2 55 22 58 38 5 32 33 -18 79 -26 24 -57 53 -69 65 -58
57 -97 65 -145 29z m110 -74 l43 -39 2 -77 c1 -43 -3 -79 -9 -82 -18 -11 -177
-10 -184 1 -3 6 -7 42 -8 80 l-1 70 44 43 c25 24 51 43 58 43 7 0 32 -18 55
-39z"/>
</g>
</svg>
